<svg xmlns="http://www.w3.org/2000/svg" width="65" height="52"><path fill-rule="evenodd" fill="#D0B273" d="M22.496 20.191s.495-9.456 8.58-8.353c8.502 1.16 8.425 12.606 7.343 16.086-1.082 3.481-5.334 12.761-12.676 13.999-7.343 1.237-17.237-2.63-17.237-13.38s4.792-16.628 7.73-19.025c2.937-2.398 10.434-4.64 18.009-4.873 7.574-.232 9.816 0 9.816 0S43.984.903 39.964.547c-4.019-.357-22.028.85-33.081 13.457-11.053 12.606-5.565 24.862.232 28.497 5.797 3.635 16.773 3.83 22.57.659 5.796-3.171 15.239-11.88 16.772-16.55 1.778-5.414 1.855-15.468-8.734-17.943-12.689-2.966-17.236 5.801-17.236 7.193 0 1.392 2.009 4.331 2.009 4.331z"/><path fill-rule="evenodd" fill="#B84341" d="M51.267 27.525c-4.369.97-8.713 1.942-12.996 3.032-2.303.577-4.576 1.219-6.831 1.854-.074 3.252-.053 6.487.094 9.704.108 1.602.23 3.207.523 4.779.278 1.583.692 3.126 1.602 4.6-1.565-.793-2.737-2.292-3.666-3.798-.905-1.542-1.608-3.183-2.16-4.85-.98-2.928-1.54-5.926-1.937-8.921-.079.02-.159.043-.239.063a156.47 156.47 0 0 0-6.067 1.676c-.998.266-2 .479-3.03.69-1.065.208-2.107.365-3.412.9-.225-1.456.467-2.827 1.206-3.931.782-1.115 1.749-2.001 2.771-2.711 2.078-1.376 4.284-2.334 6.493-3.155a36.595 36.595 0 0 1 1.805-.595c.005-1.471.068-2.939.239-4.4.17-1.694.506-3.374.793-5.05.285-1.673.866-3.343 2.599-4.869 1.436 1.797 1.798 3.456 1.898 5.114.105 1.656.307 3.309.392 4.951.065.961.1 1.919.122 2.875 1.911-.324 3.829-.573 5.736-.806 4.554-.501 9.104-.808 13.662-.815 4.55-.042 9.114.205 13.63.827l-13.227 2.836z"/></svg>