<svg xmlns="http://www.w3.org/2000/svg" width="71" height="39"><path fill-rule="evenodd" fill="#B84341" d="M1.084 15.621C0 12.163 2.444 3.807 4.234 2.474c4.042-3.011 5.221-1.35 8.588 0 5.116 2.051 6.769.969 12.342-1.201 5.867-2.284 10.92.969 16.177 3.172 9.375 3.929 19.355 6.818 29.476 7.984l.183.98c-9.192 2.314-18.122 2.966-26.555 1.22-5.727-1.186-9.987-3.83-15.716-3.83-3.43 0-7.479 2.151-11.894 2.052-2.865-.065-4.087-2.182-7.176-2.182-5.372 0-6.417 4.255-8.575 4.952z"/><path fill-rule="evenodd" fill="#D0B273" d="M7.561 28.221c4.332 2.865 5.686 3.481 10.545 3.912 6.954.616 15.278-2.165 23.638-4.579-1.332 1.755-6.296 6.231-8.293 8.034-2.735 2.467-5.128 2.973-8.991 2.933-3.853-.041-8.693.474-11.565-2.268-1.636-1.562-4.5-6.295-5.334-8.032z"/></svg>