<svg xmlns="http://www.w3.org/2000/svg" width="83" height="37"><path fill-rule="evenodd" fill="#B84341" d="M39.046 20.015c.688-.389.293-3.327 2.996-3.327 2.704 0 3.606 1.578 3.606 4.42 0 2.841-2.071 6.095-4.97 7.212-2.898 1.118-5.773-1.238-6.528-2.598-.755-1.36-1.455-4.803.884-6.494 2.137-1.545 3.633 1.001 4.012.787z"/><path fill-rule="evenodd" fill="#D0B273" d="M82.016 19.171c-2.402-2.992-5.575-5.316-8.818-7.138A44.051 44.051 0 0 0 62.85 8.006c-3.425-.946-6.985-1.413-10.509-1.632a139.47 139.47 0 0 0-4.815.077c-5.698.173-11.338 1.854-13.547 3.652-2.21 1.797-5.815 6.202-5.815 14.26s7.443 10.956 12.967 10.029c5.523-.928 8.721-7.884 9.535-10.493.814-2.609.872-11.188-5.523-12.057-6.083-.827-6.454 6.26-6.454 6.26s-1.512-2.203-1.512-3.246c0-1.044 3.42-7.614 12.966-5.391 7.966 1.855 7.908 9.391 6.57 13.449-1.153 3.5-8.256 10.028-12.617 12.405-4.361 2.377-12.618 2.23-16.978-.494-4.361-2.725-8.489-11.911-.175-21.36 1.589-1.806 3.37-3.295 5.231-4.528-4.057 1.331-8.016 3.091-11.873 5.099-6.591 3.564-12.92 7.96-18.934 13.041l-.871-.824C4.869 19.05 11.025 13.432 17.801 8.942 24.673 4.588 32.452 1.866 40.403.86c.496-.069.991-.159 1.489-.209l1.502-.046 3.001-.086c1-.069 1.997.022 2.994.111l2.986.246c3.952.464 7.842 1.333 11.627 2.694 3.759 1.404 7.424 3.208 10.711 5.672.83.596 1.613 1.277 2.4 1.933.757.71 1.512 1.412 2.207 2.191 1.414 1.539 2.675 3.181 3.678 5.148l-.982.657z"/></svg>