<svg xmlns="http://www.w3.org/2000/svg" width="23" height="25"><path fill-rule="evenodd" fill="#AC8E4C" d="M4.499 15.499h1.5a1.5 1.5 0 0 0 1.5-1.5V12.5a1.5 1.5 0 0 0-1.5-1.5h-1.5a1.5 1.5 0 0 0-1.5 1.5v1.499a1.5 1.5 0 0 0 1.5 1.5zm0-2.999h1.5v1.499h-1.5V12.5zM16.5 21.498H18a1.5 1.5 0 0 0 1.501-1.5v-1.499a1.5 1.5 0 0 0-1.501-1.5h-1.5a1.5 1.5 0 0 0-1.5 1.5v1.499a1.5 1.5 0 0 0 1.5 1.5zm0-2.999H18v1.499h-1.5v-1.499zm0-3H18a1.5 1.5 0 0 0 1.501-1.5V12.5A1.5 1.5 0 0 0 18 11h-1.5a1.5 1.5 0 0 0-1.5 1.5v1.499a1.5 1.5 0 0 0 1.5 1.5zm0-2.999H18v1.499h-1.5V12.5zm3.001-10.498H16.5v-.75a.75.75 0 1 0-1.5 0v.75H7.499v-.75a.75.75 0 1 0-1.5 0v.75h-3a3 3 0 0 0-3 2.999v16.497a3 3 0 0 0 3 2.999h16.502a3 3 0 0 0 3-2.999V5.001a3 3 0 0 0-3-2.999zm1.5 19.496a1.5 1.5 0 0 1-1.5 1.5H2.999a1.5 1.5 0 0 1-1.5-1.5V8.001h19.502v13.497zm0-14.998H1.499V5.001a1.5 1.5 0 0 1 1.5-1.5h3v.75a.75.75 0 0 0 1.5 0v-.75H15v.75a.75.75 0 0 0 1.5 0v-.75h3.001a1.5 1.5 0 0 1 1.5 1.5V6.5zM10.5 21.498H12a1.5 1.5 0 0 0 1.5-1.5v-1.499a1.5 1.5 0 0 0-1.5-1.5h-1.5a1.5 1.5 0 0 0-1.5 1.5v1.499a1.5 1.5 0 0 0 1.5 1.5zm0-2.999H12v1.499h-1.5v-1.499zm0-3H12a1.5 1.5 0 0 0 1.5-1.5V12.5A1.5 1.5 0 0 0 12 11h-1.5A1.5 1.5 0 0 0 9 12.5v1.499a1.5 1.5 0 0 0 1.5 1.5zm0-2.999H12v1.499h-1.5V12.5zm-6.001 8.998h1.5a1.5 1.5 0 0 0 1.5-1.5v-1.499a1.5 1.5 0 0 0-1.5-1.5h-1.5a1.5 1.5 0 0 0-1.5 1.5v1.499a1.5 1.5 0 0 0 1.5 1.5zm0-2.999h1.5v1.499h-1.5v-1.499z"/></svg>