<?xml version="1.0" encoding="utf-8"?>
<!-- Generator: Adobe Illustrator 22.1.0, SVG Export Plug-In . SVG Version: 6.00 Build 0)  -->
<svg version="1.1" id="Layer_1" xmlns="http://www.w3.org/2000/svg" xmlns:xlink="http://www.w3.org/1999/xlink" x="0px" y="0px"
	 viewBox="0 0 97.2 53.4" style="enable-background:new 0 0 97.2 53.4;" xml:space="preserve" width="65" height="52">
<style type="text/css">
	.st0{fill:#D0B273;}
	.st1{fill:#B84341;}
</style>
<g>
	<path class="st0" d="M67.1,19.3c4.1,0.1,7.8-1.2,11.3-2.8c3.3-1.6,4.6-4.7,4.8-8c0.1-2.1-1-4-3.1-5c-2.7-1.2-5.5-1.4-8.2-0.2
		c-5,2.2-7.4,4.7-10.5,5.1c1-0.5,8.4-5.8,9-6.1c4.5-2.4,7.7-2.5,11.8-1.2c3,0.9,5.1,2.7,6,5.8c0.1,0.3,0.1,0.5,0.2,0.9
		c0.2,1-0.1,5-2.4,8.2c-2.1,2.9-5.1,4.3-8.3,5.5c-0.1,0-0.2,0.1-0.4,0.3c2,1,4,1.7,5.9,2.8c3.2,1.8,6.5,3.7,9.5,5.9
		c1.5,1.1,2.8,2.8,3.8,4.4c1,1.6,0.6,3-0.9,4.3c-2.3,2-5.1,2.3-7.9,2.1c-6.3-0.3-12.2-2.3-18-4.5c-5.7-2.2-11.2-5-17.2-6.1
		c-1.5-0.3-3-0.7-4.5-0.6c-2.7,0-4.6,1.7-6.3,3.5c-6.2,6.4-13,12-20.9,16.1c-5.4,2.8-10.2,3.9-16.3,3.7C3.4,53.4,0.8,53,0,52
		c2.6,0.7,12.7-4.3,16.2-6.6c5.3-3.5,9.6-8.3,14-12.8c4.2-4.4,9-8.2,14.3-11c4.9-2.6,9.8-2.2,14.7,0.2c6.7,3.3,13.5,6.2,20.3,9.2
		c1.2,0.5,2.5,0.7,3.8,1c0.4,0.1,0.9-0.2,1.3-0.3c-0.1-0.5-0.1-1.1-0.4-1.4c-0.9-0.9-1.9-1.9-3-2.6c-4.3-2.7-8.8-5.2-13.1-7.8
		C67.7,19.7,67.4,19.5,67.1,19.3z"/>
	<path class="st1" d="M12.6,23.3c2.2-3.5,5.1-7.6,8.6-10.4c2.4-2,5.6-2.3,8.3-1.7c4,0.8,6.7,1.4,10.5,2.1c4.1,0.7,14.1,0.1,19.4-4
		c-1.4,0.1-5.3,0.4-8.1-0.2c-9.2-2.3-12.5-3.9-21.7-6.2C26.1,2,22.6,2.6,19.1,5.2c-2.9,2.2-4.9,5.1-6.3,8.1
		c-2.7,6-5.1,12.1-7.6,18.2C3.8,35,2.5,38.6,1.1,42.1C1.2,42.2,8.9,29.2,12.6,23.3z"/>
</g>
</svg>
