<?xml version="1.0" encoding="utf-8"?>
<!-- Generator: Adobe Illustrator 22.1.0, SVG Export Plug-In . SVG Version: 6.00 Build 0)  -->
<svg version="1.1" id="_2" xmlns="http://www.w3.org/2000/svg" xmlns:xlink="http://www.w3.org/1999/xlink" x="0px" y="0px"
	 viewBox="0 0 60.5 47.5" style="enable-background:new 0 0 60.5 47.5;" xml:space="preserve" width="65" height="52">
<style type="text/css">
	.st0{fill:#B84341;}
	.st1{fill:#D0B273;}
</style>
<g>
	<path id="Shape_18_copy_1_" class="st0" d="M29.9,18.7c0.9-0.5,0.4-4.5,4-4.5s4.8,2.1,4.8,5.9c-0.2,4.2-2.8,8-6.6,9.7
		c-3.9,1.5-7.7-1.7-8.7-3.5s-1.9-6.4,1.2-8.7C27.4,15.6,29.4,19,29.9,18.7z"/>
	<path class="st1" d="M30.1,38.4c-3.2,0.1-3.7-0.9-4.5-1.3c2.2,2.1,2.5,3,3,4.5c0.5,1.5,1.4,5.5,1.4,5.5s1.1-4,2.3-6
		c1.2-2,2.8-4.2,2.8-4.2S33.9,38.3,30.1,38.4z"/>
	<path class="st1" d="M51.9,22.6c-0.4-6.1-8.8-18.3-12.3-22.1C43.7,2.6,58,12.1,59.2,20.3s-11.5,22-12.1,23.4
		C46.9,43.7,52.3,28.7,51.9,22.6z"/>
	<path class="st1" d="M9,21.6c-1.4,6,3.1,20.1,5.3,24.8C11,43.1,0,29.9,1.3,21.6S18.7,3.9,19.7,2.7C19.8,2.8,10.4,15.6,9,21.6z"/>
</g>
</svg>
