<?xml version="1.0" encoding="UTF-8"?>
<svg width="32px" height="30px" viewBox="0 0 32 30" version="1.1" xmlns="http://www.w3.org/2000/svg" xmlns:xlink="http://www.w3.org/1999/xlink">
    <title>65ECF61B-A6E6-403E-9CE6-6A0B03AC4BB6</title>
    <g id="Page-1" stroke="none" stroke-width="1" fill="none" fill-rule="evenodd">
        <g id="SÄkumalapa" transform="translate(-155.000000, -4208.000000)" fill="#D1AA66">
            <g id="Footer" transform="translate(0.000000, 3184.000000)">
                <g id="Content" transform="translate(155.000000, 1019.000000)">
                    <path d="M26.1545162,5 C27.7958748,5 28.8901139,5.46650718 29.4372335,6.39952153 C29.6201133,6.72248804 29.6925559,7.29665072 29.6560813,8.1937799 C29.0500412,8.14961354 28.4716268,8.11224201 27.9187132,8.0816653 L27.1082026,8.04089635 L27.1082026,8.04089635 L26.3343493,8.01031964 L26.3343493,8.01031964 L25.5955594,7.98993517 C25.2346647,7.98229099 24.8863211,7.9784689 24.5496322,7.9784689 C15.7957194,7.9784689 10.1056761,10.0956938 7.58892623,14.2942584 C6.4375964,16.1821302 5.78684475,18.4311602 5.66859223,21.0099432 L5.65577049,21.3636364 C5.54634658,24.0909091 6.0569915,26.423445 7.11475595,28.3253589 C7.80777405,29.5095694 8.8655385,30.4784689 10.324524,31.2679426 C11.7835094,32.0574163 13.3154442,32.4162679 14.9932774,32.4162679 C18.7136904,32.4162679 21.7410852,30.4066986 24.0754619,26.3516746 C26.3738706,22.2966507 26.5922118,18.6363636 24.7320054,15.3349282 C23.7112221,13.4688995 22.1423062,12.5717703 20.0267773,12.5717703 C17.1088064,12.5717703 15.4674477,14.4736842 15.0662267,18.3492823 L14.8315342,18.0988185 L14.8315342,18.0988185 L14.6268296,17.8703252 L14.6268296,17.8703252 L14.4508368,17.6638024 C14.4238265,17.6312128 14.3979593,17.5995386 14.3732086,17.5687799 L14.2378909,17.3952129 L14.2378909,17.3952129 L14.1280948,17.2436163 L14.1280948,17.2436163 L14.0425442,17.1139903 C14.0302354,17.0942169 14.0188836,17.0753589 14.0084622,17.0574163 C13.1695456,15.5502392 13.6801905,13.9712919 15.5768716,12.3205742 C17.4370781,10.6698565 19.5890816,9.84449761 21.9964076,9.84449761 C23.7471902,9.84449761 25.4620047,10.3110048 27.175806,11.208134 C28.8901139,12.1052632 30.0937769,13.2177033 30.8232697,14.5095694 C33.194121,18.708134 31.990458,23.0861244 27.1393314,27.6435407 C21.9964076,32.5239234 16.8899585,35 11.7835094,35 C9.74092978,35 7.73482477,34.4976077 5.80166904,33.492823 C3.83203867,32.4880383 2.44600248,31.2320574 1.60708584,29.7248804 C-0.32606989,26.3516746 -0.508443072,22.7990431 1.02349166,19.1028708 C2.55542639,15.3708134 5.50987195,12.2488038 9.85035369,9.70095694 C15.2485999,6.57894737 20.6468461,5 26.1545162,5 Z M18.9673728,15.6509754 C21.6211447,15.8792804 22.3823151,18.588787 22.2573948,20.7030727 L22.2372375,20.9640358 C22.2331331,21.0069388 22.2286622,21.0495278 22.2238341,21.091775 L22.1906508,21.3409341 L22.1906508,21.3409341 C21.6045077,24.9061614 18.7470603,28.4713887 15.0836662,28.2913267 C11.4202722,28.0752524 9.40540541,25.3383102 9.40540541,21.7730829 C9.40540541,18.2078556 12.739094,16.4072358 15.4500056,19.2522151 C15.46749,19.1147132 15.4875289,18.9783832 15.5104709,18.8437616 L15.5603288,18.5769552 C15.9109073,16.8595857 16.7913653,15.491375 18.9673728,15.6509754 Z" id="ic-footer-symbol"></path>
                </g>
            </g>
        </g>
    </g>
</svg>