<?xml version="1.0" encoding="UTF-8"?>
<svg width="30px" height="30px" viewBox="0 0 30 30" version="1.1" xmlns="http://www.w3.org/2000/svg" xmlns:xlink="http://www.w3.org/1999/xlink">
    <title>DCEC52A2-FA51-4EC4-8DF6-D8943CA9155B</title>
    <g id="Page-1" stroke="none" stroke-width="1" fill="none" fill-rule="evenodd">
        <g id="SÄkumalapa" transform="translate(-1320.000000, -4208.000000)">
            <rect fill="#FFFFFF" x="0" y="0" width="1600" height="4283"></rect>
            <g id="Footer" transform="translate(0.000000, 3184.000000)">
                <rect fill="#3B3E47" x="0" y="0" width="1600" height="1099"></rect>
                <g id="Copyrights-+-Social" transform="translate(155.000000, 1019.000000)">
                    <g id="Button---Facebook" transform="translate(1160.000000, 0.000000)">
                        <rect id="Base" fill="#484B56" x="0" y="0" width="40" height="40" rx="4"></rect>
                        <g id="Icon" transform="translate(5.000000, 5.000000)" fill="#FFFFFF">
                            <path d="M19,23 L19,16 L21,16 L22,13 L19,13 L19,11 C19,10.4477153 19.4477153,10 20,10 L22,10 L22,7.3 C20,7 20,7 19,7 C17.3431458,7 16,8.34314575 16,10 L16,13 L14,13 L14,16 L16,16 L16,23 L19,23 Z" id="icon"></path>
                        </g>
                    </g>
                </g>
            </g>
        </g>
    </g>
</svg>