<?xml version="1.0" encoding="UTF-8"?>
<svg width="24px" height="24px" viewBox="0 0 24 24" version="1.1" xmlns="http://www.w3.org/2000/svg" xmlns:xlink="http://www.w3.org/1999/xlink">
    <title>A8E31963-DE91-4792-AC50-E8EDEFDF6E5F</title>
    <g id="Page-1" stroke="none" stroke-width="1" fill="none" fill-rule="evenodd">
        <g id="SÄkumalapa" transform="translate(-835.000000, -4055.000000)" fill-rule="nonzero">
            <g id="Footer" transform="translate(0.000000, 3184.000000)">
                <g id="Contacts" transform="translate(155.000000, 848.000000)">
                    <g id="Adress" transform="translate(660.000000, 0.000000)">
                        <g id="Content" transform="translate(20.000000, 16.000000)">
                            <g id="Icon" transform="translate(0.000000, 7.000000)">
                                <g id="icon" transform="translate(2.000000, 0.000000)">
                                    <path d="M10,0 C4.47715251,0 0,4.47715246 0,10 C0,13.3716046 1.80240157,16.6760075 4.77404732,19.8127446 C5.7929979,20.8883036 6.88174698,21.8681778 7.97082322,22.7354051 C8.16171233,22.8874094 8.3459631,23.0305855 8.52248714,23.1646462 L9.0277907,23.5391949 L9.4452998,23.8320503 C9.78119922,24.0559832 10.2188008,24.0559832 10.5547002,23.8320503 L10.9722093,23.5391949 L11.4775129,23.1646462 C11.6540369,23.0305855 11.8382877,22.8874094 12.0291768,22.7354051 C13.118253,21.8681778 14.2070021,20.8883036 15.2259527,19.8127446 C18.1975984,16.6760075 20,13.3716046 20,10 C20,4.47715246 15.5228475,0 10,0 Z M10,2 C14.418278,2 18,5.58172197 18,10 C18,12.7533954 16.4274016,15.6364925 13.7740473,18.4372554 C12.8242479,19.4398214 11.803622,20.3583847 10.7833232,21.1708449 L10.5209935,21.3773367 L10,21.772 L9.73068668,21.5708274 C9.56663456,21.4462211 9.3949283,21.3127859 9.21667678,21.1708449 C8.19637802,20.3583847 7.1757521,19.4398214 6.22595268,18.4372554 C3.57259843,15.6364925 2,12.7533954 2,10 C2,5.58172197 5.58172201,2 10,2 Z" id="path" fill="#787C86"></path>
                                    <path d="M10,5.99999987 C7.790861,5.99999987 6,7.79086087 6,9.99999987 C6,12.2091389 7.790861,13.9999999 10,13.9999999 C12.209139,13.9999999 14,12.2091389 14,9.99999987 C14,7.79086087 12.209139,5.99999987 10,5.99999987 Z M10,7.99999987 C11.1045695,7.99999987 12,8.89543037 12,9.99999987 C12,11.1045694 11.1045695,11.9999999 10,11.9999999 C8.8954305,11.9999999 8,11.1045694 8,9.99999987 C8,8.89543037 8.8954305,7.99999987 10,7.99999987 Z" id="path" fill="#D0B273"></path>
                                </g>
                            </g>
                        </g>
                    </g>
                </g>
            </g>
        </g>
    </g>
</svg>