<?xml version="1.0" encoding="UTF-8"?>
<svg width="24px" height="24px" viewBox="0 0 24 24" version="1.1" xmlns="http://www.w3.org/2000/svg" xmlns:xlink="http://www.w3.org/1999/xlink">
    <title>58EF9D4A-201F-4A33-9317-7D64EFDCB739</title>
    <g id="Page-1" stroke="none" stroke-width="1" fill="none" fill-rule="evenodd">
        <g id="SÄkumalapa" transform="translate(-175.000000, -4055.000000)" fill-rule="nonzero">
            <g id="Footer" transform="translate(0.000000, 3184.000000)">
                <g id="Contacts" transform="translate(155.000000, 848.000000)">
                    <g id="Content" transform="translate(20.000000, 16.000000)">
                        <g id="icon" transform="translate(0.000000, 6.999923)">
                            <path d="M14.9939039,0 L15.1105539,0.00620598202 C19.7809788,0.52570613 23.4691502,4.21387751 23.9937655,8.88855164 C24.055359,9.43739104 23.6603681,9.93224468 23.1115287,9.99383818 C22.5626893,10.0554317 22.0678357,9.66044083 22.0062422,9.11160143 C21.5858019,5.36519632 18.6306983,2.41009277 14.8894537,1.99394709 C14.3405542,1.93289196 13.9450781,1.43842599 14.0061333,0.889526444 C14.0628273,0.379834005 14.4932276,0.00243020284 14.9939039,0 Z M15.1914976,4.01858272 C17.614376,4.49129709 19.5087833,6.38570433 19.9814976,8.80858272 C20.0872568,9.35064678 19.7335617,9.87581124 19.1914976,9.98157035 C18.6494336,10.0873295 18.1242691,9.73363442 18.01851,9.19157035 C17.7017223,7.56788776 16.4321926,6.29835807 14.80851,5.98157035 C14.2664459,5.87581124 13.9127509,5.35064678 14.01851,4.80858272 C14.1242691,4.26651865 14.6494336,3.9128236 15.1914976,4.01858272 Z" id="path" fill="#D0B273"></path>
                            <path d="M6.26766529,0.999974282 L3.10976956,0.999974282 C2.23565427,1.00105024 1.40308514,1.36811389 0.814216226,2.01192862 C0.224897306,2.65623534 -0.0660501859,3.51836951 0.0126558225,4.38760216 C0.377424091,7.81690871 1.54124356,11.0971456 3.41132542,13.9781721 C5.10656502,16.6407725 7.37466795,18.9043826 10.0497891,20.6008986 C12.9152413,22.4555039 16.1853925,23.6165094 19.5897296,23.9856857 C20.4798719,24.0661369 21.3449411,23.7741576 21.9905233,23.1830536 C22.636544,22.5915481 23.0028966,21.7553215 22.9993362,20.8798835 L22.9993444,17.7226051 C23.0382653,16.1695532 21.8869647,14.8134423 20.3226632,14.5931948 C19.3746766,14.4683718 18.4526425,14.2391385 17.5652347,13.9086567 L17.3636465,13.8407829 C16.2816009,13.51719 15.0988289,13.8059551 14.2859113,14.6082335 L13.4930038,15.3980765 L13.3700729,15.3217533 C11.4797302,14.1024861 9.87032529,12.496277 8.64872319,10.6098307 L8.57300382,10.4890765 L9.35951023,9.70509898 C10.2182869,8.83840004 10.492004,7.55751323 10.06407,6.42133927 C9.73390855,5.53829222 9.5043165,4.6184698 9.3805172,3.68167233 C9.16049123,2.12776244 7.82904323,0.984939599 6.26766529,0.999974282 Z M3.1108842,2.99997566 L6.27738972,2.99997566 L6.28711414,2.99997566 C6.84567864,2.99459728 7.32108812,3.40265587 7.39901667,3.95290878 C7.54135222,5.03030116 7.80765415,6.09719561 8.19157804,7.12402555 C8.34466243,7.53047611 8.24730354,7.98607683 7.94274995,8.29344782 L6.60574024,9.62778696 C6.28662712,9.94626796 6.22008742,10.4389008 6.4432728,10.8306298 C8.03549641,13.6252582 10.3538993,15.9390686 13.1538319,17.5280005 C13.54475,17.7498424 14.0356472,17.6836068 14.3537913,17.3660929 L15.6947505,16.02779 C15.9994826,15.7270681 16.4581609,15.6294395 16.864988,15.7820624 C17.8957646,16.1659396 18.9643906,16.4316181 20.0527393,16.5748759 C20.6030135,16.6523932 21.0136185,17.1360427 20.9996534,17.6977508 L20.9993444,20.8839506 C21.0006193,21.1994438 20.8702092,21.4971144 20.6399181,21.7079721 C20.4091885,21.9192313 20.0996117,22.02372 19.7873718,21.9955572 C16.7114928,21.6618357 13.7396695,20.6067459 11.1286949,18.9168924 C8.69369515,17.3726067 6.63590176,15.3188896 5.09364468,12.8966339 C3.39008369,10.2720768 2.33290505,7.29240817 2.00296822,4.19161771 C1.97651344,3.8980824 2.08003771,3.5913198 2.29000179,3.36176453 C2.50037359,3.13176348 2.79827532,3.00042436 3.1108842,2.99997566 Z" id="path" fill="#787C86"></path>
                        </g>
                    </g>
                </g>
            </g>
        </g>
    </g>
</svg>