<?xml version="1.0" encoding="UTF-8"?>
<svg width="24px" height="24px" viewBox="0 0 24 24" version="1.1" xmlns="http://www.w3.org/2000/svg" xmlns:xlink="http://www.w3.org/1999/xlink">
    <title>ic-footer-email</title>
    <g id="Page-1" stroke="none" stroke-width="1" fill="none" fill-rule="evenodd">
        <g id="Search-results-width-1920px" transform="translate(-665.000000, -3210.000000)" fill-rule="nonzero">
            <g id="Footer" transform="translate(0.000000, 2339.000000)">
                <g id="Contacts" transform="translate(315.000000, 848.000000)">
                    <g id="Email" transform="translate(330.000000, 0.000000)">
                        <g id="Content" transform="translate(20.000000, 16.000000)">
                            <g id="Icon" transform="translate(0.000000, 7.000000)">
                                <g id="icon" transform="translate(0.000000, 2.000000)">
                                    <path d="M20.8,0 L3.2,0 C1.43262294,0 0,1.46518255 0,3.25 L0,16.75 C0,18.5348175 1.43262294,20 3.2,20 L20.8,20 C22.5673771,20 24,18.5348175 24,16.75 L24,3.25 C24,1.46518255 22.5673771,0 20.8,0 Z M3.2,2 L20.8,2 C21.4526229,2 22,2.55981745 22,3.25 L22,16.75 C22,17.4401825 21.4526229,18 20.8,18 L3.2,18 C2.54737706,18 2,17.4401825 2,16.75 L2,3.25 C2,2.55981745 2.54737706,2 3.2,2 Z" id="path" fill="#787C86"></path>
                                    <path d="M17.3598156,5.23177872 C17.7840925,4.87821464 18.4146572,4.9355387 18.7682213,5.3598156 C19.0945881,5.75145581 19.0708491,6.31886788 18.7315605,6.68193237 L18.6401844,6.76822128 L12.6401844,11.7682213 C12.3030517,12.0491652 11.8272158,12.0747055 11.4648643,11.8448423 L11.3598156,11.7682213 L5.3598156,6.76822128 C4.9355387,6.4146572 4.87821464,5.7840925 5.23177872,5.3598156 C5.55814556,4.96817539 6.12053661,4.88920504 6.53883241,5.15746088 L6.6401844,5.23177872 L11.999,9.697 L17.3598156,5.23177872 Z" id="path" fill="#D0B273"></path>
                                </g>
                            </g>
                        </g>
                    </g>
                </g>
            </g>
        </g>
    </g>
</svg>