<?xml version="1.0" encoding="UTF-8"?>
<svg width="20px" height="20px" viewBox="0 0 20 20" version="1.1" xmlns="http://www.w3.org/2000/svg" xmlns:xlink="http://www.w3.org/1999/xlink">
    <title>52C0F097-C7FF-4CD5-B283-9B1815A37250</title>
    <g id="Page-1" stroke="none" stroke-width="1" fill="none" fill-rule="evenodd">
        <g id="SÄkumalapa" transform="translate(-1228.000000, -30.000000)" fill="#AB8E4C" fill-rule="nonzero">
            <g id="Right-side" transform="translate(1088.000000, 21.000000)">
                <g id="Icon" transform="translate(140.000000, 9.000000)">
                    <path d="M18,5 L16.791,5 C16.922,4.589 17,4.096 17,3.5 C17,1.57 15.43,0 13.5,0 C11.878,0 10.795,1.482 10.096,3.085 C9.407,1.57 8.269,0 6.5,0 C4.57,0 3,1.57 3,3.5 C3,4.096 3.079,4.589 3.209,5 L2,5 C0.897,5 0,5.897 0,7 L0,9 C0,10.103 0.897,11 2,11 L2,18 C2,19.103 2.897,20 4,20 L9,20 L11,20 L16,20 C17.103,20 18,19.103 18,18 L18,11 C19.103,11 20,10.103 20,9 L20,7 C20,5.897 19.103,5 18,5 Z M13.5,2 C14.327,2 15,2.673 15,3.5 C15,5 14.374,5 14,5 L11.522,5 C12.033,3.424 12.775,2 13.5,2 Z M5,3.5 C5,2.673 5.673,2 6.5,2 C7.388,2 8.214,3.525 8.698,5 L6,5 C5.626,5 5,5 5,3.5 Z M2,7 L9,7 L9,9 L2,9 L2,7 Z M4,18 L4,11 L9,11 L9,18 L4,18 Z M16,18 L11,18 L11,11 L16,11 L16,18 Z M11,9 L11,7.085 C11.005,7.057 11.011,7.028 11.017,7 L18,7 L18.001,9 L11,9 Z" id="icon"></path>
                </g>
            </g>
        </g>
    </g>
</svg>