<?xml version="1.0" encoding="UTF-8"?>
<svg width="24px" height="24px" viewBox="0 0 24 24" version="1.1" xmlns="http://www.w3.org/2000/svg" xmlns:xlink="http://www.w3.org/1999/xlink">
    <title>2A2DA1A9-777F-4E4F-9530-707CCAF60E48</title>
    <g id="Page-1" stroke="none" stroke-width="1" fill="none" fill-rule="evenodd">
        <g id="Mob---SÄkumalapa---Menu-1" transform="translate(-60.000000, -1223.000000)">
            <g id="Contacts" transform="translate(60.000000, 1100.000000)">
                <g id="Content" transform="translate(0.000000, 116.000000)">
                    <g id="icon" transform="translate(0.000000, 7.000000)">
                        <path d="M12,0 C18.627417,0 24,5.372583 24,12 C24,18.627417 18.627417,24 12,24 C5.372583,24 0,18.627417 0,12 C0,5.372583 5.372583,0 12,0 Z M12,2 C6.4771525,2 2,6.4771525 2,12 C2,17.5228475 6.4771525,22 12,22 C17.5228475,22 22,17.5228475 22,12 C22,6.4771525 17.5228475,2 12,2 Z" id="Shape" fill="#B74340"></path>
                        <path d="M12,6 C12.5128358,6 12.9355072,6.38604019 12.9932723,6.88337887 L13,7 L13,11 L19,11 C19.5128358,11 19.9355072,11.3860402 19.9932723,11.8833789 L20,12 C20,12.5128358 19.6139598,12.9355072 19.1166211,12.9932723 L19,13 L12,13 C11.4871642,13 11.0644928,12.6139598 11.0067277,12.1166211 L11,12 L11,7 C11,6.44771525 11.4477153,6 12,6 Z" id="Path" fill="#D0B273" fill-rule="nonzero"></path>
                    </g>
                </g>
            </g>
        </g>
    </g>
</svg>