<?xml version="1.0" encoding="UTF-8"?>
<svg width="30px" height="30px" viewBox="0 0 30 30" version="1.1" xmlns="http://www.w3.org/2000/svg" xmlns:xlink="http://www.w3.org/1999/xlink">
    <title>68681080-CB8F-4729-A37D-4D32238F39F5</title>
    <g id="Page-1" stroke="none" stroke-width="1" fill="none" fill-rule="evenodd">
        <g id="SÄkumalapa" transform="translate(-1410.000000, -4208.000000)">
            <rect fill="#FFFFFF" x="0" y="0" width="1600" height="4283"></rect>
            <g id="Footer" transform="translate(0.000000, 3184.000000)">
                <rect fill="#3B3E47" x="0" y="0" width="1600" height="1099"></rect>
                <g id="Copyrights-+-Social" transform="translate(155.000000, 1019.000000)">
                    <g id="Social-buttons" transform="translate(1160.000000, 0.000000)">
                        <g id="Button---Instagram" transform="translate(90.000000, 0.000000)">
                            <rect id="Base" fill="#484B56" x="0" y="0" width="40" height="40" rx="4"></rect>
                            <g id="Icon" transform="translate(5.000000, 5.000000)" fill="#FFFFFF">
                                <path d="M15,7 C17.1726667,7 17.4453333,7.00933333 18.2993333,7.04866667 C21.2073333,7.182 22.8213333,8.79933333 22.952,11.702 C22.9906667,12.5553333 23,12.8273333 23,15 C23,17.1726667 22.9906667,17.4453333 22.9513333,18.2986667 C22.82,21.2066667 21.2013333,22.8186667 18.2986667,22.952 C17.4453333,22.9906667 17.1726667,23 15,23 C12.8273333,23 12.5553333,22.9906667 11.7013333,22.952 C8.79333333,22.8186667 7.18133333,21.204 7.048,18.2986667 C7.00933333,17.4453333 7,17.1726667 7,15 C7,12.8273333 7.00933333,12.5553333 7.04866667,11.7013333 C7.182,8.79333333 8.79666667,7.18133333 11.702,7.048 C12.5553333,7.00933333 12.8273333,7 15,7 Z M17.9579183,9.0426916 C17.1858101,9.00731856 16.9540557,9 15,9 C13.0459443,9 12.8147998,9.00731856 12.0426916,9.04208172 C10.057532,9.13234397 9.13356373,10.0739988 9.0426916,12.0420817 C9.00792844,12.8141899 9,13.0453344 9,14.9993901 C9,16.9540557 9.00731856,17.1852002 9.0426916,17.9566985 C9.13295385,19.9211222 10.0544826,20.8664363 12.0426916,20.9573084 C12.8141899,20.9926814 13.0459443,21 15,21 C16.9552755,21 17.1858101,20.9926814 17.9579183,20.9573084 C19.9430779,20.8670461 20.8670461,19.9241716 20.9579183,17.9573084 C20.9926814,17.1858101 21,16.9546656 21,15 C21,13.0459443 20.9932913,12.8141899 20.9579183,12.0426916 C20.867656,10.0739988 19.9412482,9.13295385 17.9579183,9.0426916 Z M15,11 C17.209023,11 19,12.7908316 19,14.9996755 C19,17.2091684 17.209023,19 15,19 C12.790977,19 11,17.2085193 11,14.9996755 C11,12.7908316 12.790977,11 15,11 Z M15,13 C13.8954885,13 13,13.8954158 13,14.9998377 C13,16.1042596 13.8954885,17 15,17 C16.1045115,17 17,16.1045842 17,14.9998377 C17,13.8954158 16.1045115,13 15,13 Z M19,12 C18.4477153,12 18,11.5522847 18,11 C18,10.4477153 18.4477153,10 19,10 C19.5522847,10 20,10.4477153 20,11 C20,11.5522847 19.5522847,12 19,12 Z" id="icon"></path>
                            </g>
                        </g>
                    </g>
                </g>
            </g>
        </g>
    </g>
</svg>