<?xml version="1.0" encoding="UTF-8"?>
<svg width="20px" height="20px" viewBox="0 0 20 20" version="1.1" xmlns="http://www.w3.org/2000/svg" xmlns:xlink="http://www.w3.org/1999/xlink">
    <title>60366391-7748-4D3B-A1DA-E142715DAA29</title>
    <g id="Page-1" stroke="none" stroke-width="1" fill="none" fill-rule="evenodd">
        <g id="SÄkumalapa" transform="translate(-1088.000000, -30.000000)" fill="#AB8E4C" fill-rule="nonzero">
            <g id="Right-side" transform="translate(1088.000000, 21.000000)">
                <g id="Icon" transform="translate(0.000000, 9.000000)">
                    <path d="M18,1 L2,1 C0.897,1 0,1.897 0,3 L0,13 C0,14.103 0.897,15 2,15 L9,15 L9,17 L6,17 L6,19 L9,19 L11,19 L14,19 L14,17 L11,17 L11,15 L18,15 C19.103,15 20,14.103 20,13 L20,3 C20,1.897 19.103,1 18,1 Z M2,11 L2,3 L18,3 L18.002,11 L2,11 Z"></path>
                </g>
            </g>
        </g>
    </g>
</svg>