<?xml version="1.0" encoding="UTF-8"?>
<svg width="18px" height="18px" viewBox="0 0 18 18" version="1.1" xmlns="http://www.w3.org/2000/svg" xmlns:xlink="http://www.w3.org/1999/xlink">
    <title>68E0ECF0-01F9-425C-BCB6-2EE7E533D010</title>
    <g id="Page-1" stroke="none" stroke-width="1" fill="none" fill-rule="evenodd" opacity="0.5">
        <g id="SÄkumalapa" transform="translate(-865.000000, -32.000000)" fill="#777777" fill-rule="nonzero">
            <g id="Search" transform="translate(556.000000, 22.000000)">
                <g id="Icon" transform="translate(309.000000, 10.000000)">
                    <path d="M7.9968901,15.992892 C9.84217249,15.992892 11.5385128,15.3581741 12.8919864,14.3056419 L16.5865497,18 L18,16.5866282 L14.3054368,12.8922701 C15.359027,11.5378721 15.9937802,9.84162594 15.9937802,7.99644602 C15.9937802,3.5874056 12.4061754,0 7.9968901,0 C3.58760482,0 0,3.5874056 0,7.99644602 C0,12.4054865 3.58760482,15.992892 7.9968901,15.992892 Z M7.9968901,1.99911151 C11.3046038,1.99911151 13.9945577,4.68891604 13.9945577,7.99644602 C13.9945577,11.303976 11.3046038,13.9937805 7.9968901,13.9937805 C4.68917643,13.9937805 1.99922252,11.303976 1.99922252,7.99644602 C1.99922252,4.68891604 4.68917643,1.99911151 7.9968901,1.99911151 Z" id="icon"></path>
                </g>
            </g>
        </g>
    </g>
</svg>