<?xml version="1.0" encoding="UTF-8"?>
<svg width="30px" height="30px" viewBox="0 0 30 30" version="1.1" xmlns="http://www.w3.org/2000/svg" xmlns:xlink="http://www.w3.org/1999/xlink">
    <title>48E74B1C-EF7D-419D-BAAB-BC655AE8627E</title>
    <g id="Page-1" stroke="none" stroke-width="1" fill="none" fill-rule="evenodd">
        <g id="SÄkumalapa" transform="translate(-1365.000000, -4208.000000)">
            <rect fill="#FFFFFF" x="0" y="0" width="1600" height="4283"></rect>
            <g id="Footer" transform="translate(0.000000, 3184.000000)">
                <rect fill="#3B3E47" x="0" y="0" width="1600" height="1099"></rect>
                <g id="Copyrights-+-Social" transform="translate(155.000000, 1019.000000)">
                    <g id="Social-buttons" transform="translate(1160.000000, 0.000000)">
                        <g id="Button---Twitter" transform="translate(45.000000, 0.000000)">
                            <rect id="Base" fill="#484B56" x="0" y="0" width="40" height="40" rx="4"></rect>
                            <g id="Icon" transform="translate(5.000000, 5.000000)" fill="#FFFFFF">
                                <path d="M22.531119,8.25881901 C21.8566203,8.66341995 21.1113128,8.95767518 20.3147144,9.11556823 C19.6801591,8.42882317 18.7732625,8 17.7692308,8 C15.8446853,8 14.2828078,9.58251898 14.2828078,11.5342027 C14.2828078,11.8114126 14.3127653,12.0801 14.3726804,12.338919 C11.4740608,12.1913428 8.90452033,10.7860049 7.1833231,8.645029 C6.88283983,9.16894685 6.71126479,9.77674538 6.71126479,10.4240172 C6.71126479,11.6494826 7.3267562,12.7314088 8.26315649,13.3652238 C7.69214749,13.3481785 7.15336555,13.1875941 6.68221504,12.9247381 L6.68221504,12.9677998 C6.68221504,14.6808497 7.88460203,16.1099612 9.48143006,16.4333728 C9.18911703,16.5163564 8.88046351,16.5580725 8.56227806,16.5580725 C8.33759645,16.5580725 8.11836168,16.5365416 7.90593544,16.4952741 C8.34985181,17.8988177 9.63711852,18.9210855 11.1635917,18.9484477 C9.97028275,19.8967031 8.46559688,20.4618884 6.83200278,20.4618884 C6.5505834,20.4618884 6.27234133,20.4457403 6,20.413444 C7.54326756,21.4146295 9.37748645,22 11.3465143,22 C17.7624222,22 21.2697247,16.6154881 21.2697247,11.9446349 C21.2697247,11.7907789 21.2670013,11.6373714 21.2611006,11.4866553 C21.9424078,10.9883054 22.5342963,10.366153 23,9.65742847 C22.3754305,9.93822691 21.7027474,10.1284163 20.9973834,10.2136426 C21.7177262,9.77674538 22.2705791,9.08416904 22.531119,8.25881901" id="icon"></path>
                            </g>
                        </g>
                    </g>
                </g>
            </g>
        </g>
    </g>
</svg>