<svg xmlns="http://www.w3.org/2000/svg" width="24" height="24"><path fill-rule="evenodd" fill="#AC8E4C" d="M11.015 20.561h1.469v-1.469h-1.469v1.469zm.735-17.622a.735.735 0 0 0-.735.734v7.36H5.142a.735.735 0 1 0 0 1.469h6.608a.735.735 0 0 0 .734-.735V3.673a.734.734 0 0 0-.734-.734zM4.945 16.766l1.017 1.018 1.016-1.018-1.016-1.018-1.017 1.018zM7.119 6.113L6.08 5.075 5.042 6.113 6.08 7.151l1.039-1.038zm9.092-.037l1.016 1.019 1.016-1.019-1.016-1.018-1.016 1.018zm-.215 10.65l1.038 1.039 1.038-1.039-1.038-1.038-1.038 1.038zm3.096-5.711v1.469h1.469v-1.469h-1.469zM11.75.002C5.261.002.002 5.262.002 11.75c0 6.488 5.259 11.747 11.748 11.747 6.488 0 11.747-5.26 11.747-11.747C23.497 5.262 18.238.002 11.75.002zm0 22.027c-5.678 0-10.28-4.602-10.28-10.279S6.072 1.47 11.75 1.47c5.677 0 10.279 4.603 10.279 10.28S17.427 22.029 11.75 22.029z"/></svg>