<?xml version="1.0" encoding="UTF-8"?>
<svg width="24px" height="18px" viewBox="0 0 24 18" version="1.1" xmlns="http://www.w3.org/2000/svg" xmlns:xlink="http://www.w3.org/1999/xlink">
    <title>ic-flag-18px-uk</title>
    <g id="Page-1" stroke="none" stroke-width="1" fill="none" fill-rule="evenodd">
        <g id="Language-icons" transform="translate(-92.000000, -130.000000)" fill-rule="nonzero">
            <g id="United-Kingdom" transform="translate(50.000000, 124.000000)">
                <g id="ic-flag-18px-uk" transform="translate(41.999580, 5.999616)">
                    <rect id="BASE" fill="#0052B4" x="0.000419957661" y="0.000384383288" width="24" height="18" rx="2"></rect>
                    <path d="M2.513,0 L24,14.875 L24.00042,16.0003844 C24.00042,17.1049539 23.1049895,18.0003844 22.00042,18.0003844 L21.486,18 L0,3.124 L0.000419957661,2.00038438 C0.000419957661,0.895814884 0.895850458,0.000384383288 2.00041996,0.000384383288 L2.513,0 Z" id="Path" fill="#FFFFFF"></path>
                    <path d="M22.00042,0.000384383288 C23.1049895,0.000384383288 24.00042,0.895814884 24.00042,2.00038438 L24,3.124 L2.513,18 L2.00041996,18.0003844 C0.895850458,18.0003844 0.000419957661,17.1049539 0.000419957661,16.0003844 L0,14.875 L21.486,0 L22.00042,0.000384383288 Z" id="Path" fill="#FFFFFF"></path>
                    <path d="M1.08090773,0.223826632 L23.99621,16.0888266 L23.9949342,16.1496467 C23.9425805,16.8592649 23.5199627,17.4659168 22.9195351,17.777148 L0.00320997883,1.91082663 L0.00590569409,1.85112204 C0.0582478494,1.14166029 0.480690939,0.535119406 1.08090773,0.223826632 Z" id="Path" fill="#D80027"></path>
                    <path d="M23.9984795,1.91148449 L1.08130481,17.777148 C0.464366622,17.4573586 0.0351514346,16.8256779 0.00243073147,16.0908776 L22.9205357,0.22413974 C23.5373831,0.544324674 23.9663262,1.17640143 23.9984795,1.91148449 Z" id="Path" fill="#D80027"></path>
                    <polygon id="Path" fill="#FFFFFF" points="24.00042 6.00038438 24.00042 12.0003844 0.000419957661 12.0003844 0.000419957661 6.00038438"></polygon>
                    <polygon id="Path" fill="#FFFFFF" points="15.00042 0.000384383288 15.00042 18.0003844 9.00041996 18.0003844 9.00041996 0.000384383288"></polygon>
                    <polygon id="Path" fill="#D80027" points="14.00042 0.000384383288 14.00042 18.0003844 10.00042 18.0003844 10.00042 0.000384383288"></polygon>
                    <polygon id="Path" fill="#D80027" points="24.00042 7.00038438 24.00042 11.0003844 0.000419957661 11.0003844 0.000419957661 7.00038438"></polygon>
                </g>
            </g>
        </g>
    </g>
</svg>