<svg xmlns="http://www.w3.org/2000/svg" width="34" height="37">
    <path fill="#D0B273" fill-rule="evenodd" d="M7.917 14.728c3.459-4.518 7.413-8.103 11.862-10.754s7.56-3.977 9.331-3.977c1.455 0 2.425.233 2.91.7.485.466.728 1.188.728 2.163 0 1.612-7.149 4.614-7.402 4.614-.4 0-2.362.965-5.883 2.895-3.522 1.93-5.683 3.383-6.485 4.359 0 0-1.315 1.39-1.897 2.545-.507 1.082-.823 2.015-.949 2.8 0 0-.351 1.22-.253 2.545v.191c0 2.036.595 3.781 1.787 5.234 1.191 1.453 2.556 3.19 4.39 3.265 1.423.058 5.603-1.195 8.528-2.106 3.163-.985 6.323-2.645 9.416-4.753l-1.757 3.66c-4.829 4.306-8.986 6.303-11.106 7.385-2.119 1.081-4.754 1.505-6.482 1.505-2.594 0-4.819-1.421-6.674-4.263-1.856-2.843-2.784-6.194-2.784-10.054v-.064c-.122-1.072.253-2.545.253-2.545.253-1.145.58-2.121.981-2.927.401-.965 1.486-2.418 1.486-2.418z"/>
    <path fill="#B84341" fill-rule="evenodd" d="M20.894 18.547c-.698.491-1.327.737-1.885.737-.257 0-.791-.07-1.606-.211-.675-.14-3.06-.281-7.155-.421H5.082c-2.188-.07-3.282-.574-3.282-1.51 0-.327.367-.626 1.1-.895.733-.269 1.321-.404 1.763-.404H10.527l9.843.141c1.047 0 1.571.409 1.571 1.229 0 .397-.349.842-1.047 1.334zm-17.333 2.38h5.166l9.843.141c1.047 0 1.571.409 1.571 1.229 0 .398-.349.842-1.047 1.334-.698.491-1.327.737-1.885.737-.257 0-.792-.07-1.606-.211-.675-.14-3.06-.28-7.156-.421H3.281C1.094 23.666 0 23.163 0 22.226c0-.327.367-.626 1.1-.895.733-.269 1.32-.404 1.763-.404h.698z"/>
</svg>
