<svg xmlns="http://www.w3.org/2000/svg" width="34" height="33">
    <path fill="#D0B273" fill-rule="evenodd" d="M17.297 24.579a1.71 1.71 0 0 1-.884.256c-.296 0-.579-.085-.811-.256L2.515 14.962-.007 31.466c-.122.846.466 1.533 1.311 1.533h27.572c.846 0 1.63-.687 1.752-1.533l2.522-16.504-15.853 9.617z"/>
    <path fill="#B84341" fill-rule="evenodd" d="M33.998 13.098c-3.252-.881-6.155-2.236-8.954-3.734a64.94 64.94 0 0 1-4.076-2.412c-.668-.418-1.31-.871-1.966-1.305l-.119-.079c.037.034.082.058.123.085a1.34 1.34 0 0 0 .702.205 1.044 1.044 0 0 0 .439-.095c.015-.005.045-.022.045-.022l-.125.078a68.329 68.329 0 0 1-8.377 4.362c-2.919 1.245-5.932 2.335-9.253 2.918 2.046-2.685 4.399-4.862 6.847-6.883A68.362 68.362 0 0 1 17.008.777l.428-.242a5.21 5.21 0 0 1 .659-.279 4.823 4.823 0 0 1 1.473-.261 4.526 4.526 0 0 1 2.394.626 4.3 4.3 0 0 1 .369.246l.118.096c.608.499 1.23.978 1.827 1.493a64.942 64.942 0 0 1 3.507 3.185c2.258 2.232 4.411 4.608 6.215 7.457z"/>
</svg>
