<svg xmlns="http://www.w3.org/2000/svg" width="37" height="36">
    <path fill="#D0B273" fill-rule="evenodd" d="M17.357 15.356s.39-7.373 6.777-6.513c6.717.905 6.656 9.83 5.801 12.544-.855 2.713-4.213 9.95-10.014 10.915-5.801.965-13.616-2.05-13.616-10.433S10.09 8.903 12.411 7.034c2.32-1.87 8.243-3.619 14.227-3.799 5.984-.181 7.754 0 7.754 0S34.331.316 31.156.038C27.981-.239 13.754.702 5.022 10.531c-8.731 9.83-4.396 19.387.183 22.222 4.58 2.834 13.251 2.986 17.83.514 4.58-2.473 12.039-9.264 13.25-12.906C37.69 16.14 37.751 8.3 29.385 6.37c-10.024-2.312-13.616 4.523-13.616 5.609 0 1.085 1.588 3.377 1.588 3.377z"/>
    <path fill="#B84341" fill-rule="evenodd" d="M17.658 17.354c.833-.466.354-3.99 3.628-3.99 3.273 0 4.364 1.893 4.364 5.3 0 3.408-2.507 7.311-6.016 8.651-3.509 1.339-6.989-1.486-7.903-3.117-.914-1.631-1.762-5.76 1.069-7.787 2.588-1.853 4.399 1.2 4.858.943z"/>
</svg>
